<?xml version="1.0" encoding="UTF-8" standalone="no" ?>
<!DOCTYPE svg PUBLIC "-//W3C//DTD SVG 1.1//EN" "http://www.w3.org/Graphics/SVG/1.1/DTD/svg11.dtd">
<svg xmlns="http://www.w3.org/2000/svg" xmlns:xlink="http://www.w3.org/1999/xlink" version="1.1" width="500" height="500" viewBox="0 0 500 500" xml:space="preserve">
<desc>Created with Fabric.js 3.6.3</desc>
<defs>
</defs>
<g transform="matrix(1 0 0 1 251.709894045302 355.71632804369955)" style=""  ><path fill="#000000" opacity="1" d="M-54.36 5.03L-54.36 5.03Q-54.36 9.34-57.92 12.15Q-61.47 14.96-66.32 14.96L-66.32 14.96Q-72.53 14.96-78.23 11.33L-78.23 11.33L-78.23 9.52Q-73.02 12.87-66.32 12.87L-66.32 12.87Q-62.92 12.87-60.43 10.92Q-57.94 8.98-57.94 5.99L-57.94 5.99Q-57.94 1.14-66.82-0.72L-66.82-0.72Q-68.99-1.17-70.83-1.87Q-72.66-2.58-74.27-3.62Q-75.88-4.66-76.81-6.18Q-77.73-7.69-77.73-9.55L-77.73-9.55Q-77.73-13.40-74.34-15.80Q-70.94-18.20-66.32-18.20L-66.32-18.20Q-60.79-18.20-56.17-14.58L-56.17-14.58L-56.17-12.77Q-60.48-16.12-66.32-16.12L-66.32-16.12Q-69.49-16.12-71.82-14.60Q-74.16-13.09-74.16-10.50L-74.16-10.50Q-74.16-9.23-73.48-8.28Q-72.80-7.33-71.39-6.72Q-69.99-6.11-68.88-5.79Q-67.77-5.47-65.87-5.07L-65.87-5.07Q-60.97-4.03-57.67-1.44Q-54.36 1.14-54.36 5.03Z"/><path fill="#000000" opacity="1" d="M-35.52-17.48L-24.01 14.23L-27.95 14.23L-31.98 3.13L-44.85 3.13L-48.97 14.23L-51.19 14.23L-39.46-17.48L-35.52-17.48ZM-44.08 1.05L-32.75 1.05L-38.37-14.44L-44.08 1.05Z"/><path fill="#000000" opacity="1" d="M-15.31-17.48L-15.31 14.23L-19.03 14.23L-19.03-17.48L-15.31-17.48Z"/><path fill="#000000" opacity="1" d="M20.39-17.48L20.39 14.23L17.67 14.23L-4.17-12.41L-4.17 14.23L-6.25 14.23L-6.25-17.48L-3.53-17.48L18.30 9.16L18.30-17.48L20.39-17.48Z"/><path fill="#000000" opacity="1" d="M50.74-17.48L50.74-15.40L40.14-15.40L40.14 14.23L36.42 14.23L36.42-15.40L25.82-15.40L25.82-17.48L50.74-17.48Z"/><path fill="#000000" opacity="1" d="M78.23 5.03L78.23 5.03Q78.23 9.34 74.68 12.15Q71.12 14.96 66.27 14.96L66.27 14.96Q60.07 14.96 54.36 11.33L54.36 11.33L54.36 9.52Q59.57 12.87 66.27 12.87L66.27 12.87Q69.67 12.87 72.16 10.92Q74.65 8.98 74.65 5.99L74.65 5.99Q74.65 1.14 65.78-0.72L65.78-0.72Q63.60-1.17 61.77-1.87Q59.93-2.58 58.32-3.62Q56.72-4.66 55.79-6.18Q54.86-7.69 54.86-9.55L54.86-9.55Q54.86-13.40 58.26-15.80Q61.65-18.20 66.27-18.20L66.27-18.20Q71.80-18.20 76.42-14.58L76.42-14.58L76.42-12.77Q72.12-16.12 66.27-16.12L66.27-16.12Q63.10-16.12 60.77-14.60Q58.44-13.09 58.44-10.50L58.44-10.50Q58.44-9.23 59.12-8.28Q59.80-7.33 61.20-6.72Q62.60-6.11 63.71-5.79Q64.82-5.47 66.73-5.07L66.73-5.07Q71.62-4.03 74.93-1.44Q78.23 1.14 78.23 5.03Z"/></g>
<g transform="matrix(1.968620354655101 0 0 1.968620354655101 249.5027964727998 213.4310177327551)"  >
<g style=""   >
		<g transform="matrix(1 0 0 1 -13.144444444444442 39.40000000000001)"  >
<path style="stroke: none; stroke-width: 1; stroke-dasharray: none; stroke-linecap: butt; stroke-dashoffset: 0; stroke-linejoin: miter; stroke-miterlimit: 4; fill: rgb(0,47,47); fill-rule: nonzero; opacity: 1;"  transform=" translate(-36.855555555555554, -89.4)" d="M 36.5 87.8 c 0 0 0.4 2 0 3.2 C 36.5 91 38.1 89.8 36.5 87.8 z" stroke-linecap="round" />
</g>
		<g transform="matrix(1 0 0 1 -17.229452750762086 38.55805258290393)"  >
<path style="stroke: none; stroke-width: 1; stroke-dasharray: none; stroke-linecap: butt; stroke-dashoffset: 0; stroke-linejoin: miter; stroke-miterlimit: 4; fill: rgb(0,47,47); fill-rule: nonzero; opacity: 1;"  transform=" translate(-32.770547249237914, -88.55805258290394)" d="M 34.1 86.1 c 0 0 0 3.4 -2.8 4.8 C 31.3 90.9 35 92.2 34.1 86.1 z" stroke-linecap="round" />
</g>
		<g transform="matrix(1 0 0 1 -22.03099421616732 34.91600000000001)"  >
<path style="stroke: none; stroke-width: 1; stroke-dasharray: none; stroke-linecap: butt; stroke-dashoffset: 0; stroke-linejoin: miter; stroke-miterlimit: 4; fill: rgb(0,47,47); fill-rule: nonzero; opacity: 1;"  transform=" translate(-27.96900578383268, -84.91600000000001)" d="M 32.2 82 c 0 0 -0.9 4.8 -8.5 5.4 C 23.7 87.4 32.9 90.1 32.2 82 z" stroke-linecap="round" />
</g>
		<g transform="matrix(1 0 0 1 -26.25 31.249811781685416)"  >
<path style="stroke: none; stroke-width: 1; stroke-dasharray: none; stroke-linecap: butt; stroke-dashoffset: 0; stroke-linejoin: miter; stroke-miterlimit: 4; fill: rgb(0,47,47); fill-rule: nonzero; opacity: 1;"  transform=" translate(-23.75, -81.24981178168542)" d="M 30.5 79.7 c 0 0 -8.1 3.4 -13.5 1.1 C 17 80.9 24.7 85.9 30.5 79.7 z" stroke-linecap="round" />
</g>
		<g transform="matrix(1 0 0 1 -29.25 25.013075092295878)"  >
<path style="stroke: none; stroke-width: 1; stroke-dasharray: none; stroke-linecap: butt; stroke-dashoffset: 0; stroke-linejoin: miter; stroke-miterlimit: 4; fill: rgb(0,47,47); fill-rule: nonzero; opacity: 1;"  transform=" translate(-20.75, -75.01307509229588)" d="M 30.5 77 c 0 0 -14.8 0 -19.5 -5.1 C 11 71.9 17 81.3 30.5 77 z" stroke-linecap="round" />
</g>
		<g transform="matrix(1 0 0 1 -31.604431987247303 16.675455595596077)"  >
<path style="stroke: none; stroke-width: 1; stroke-dasharray: none; stroke-linecap: butt; stroke-dashoffset: 0; stroke-linejoin: miter; stroke-miterlimit: 4; fill: rgb(0,47,47); fill-rule: nonzero; opacity: 1;"  transform=" translate(-18.395568012752697, -66.67545559559608)" d="M 30.5 73.3 c 0 0 -15.8 -1 -24.2 -13.5 C 6 60.1 13.3 75.7 30.5 73.3 z" stroke-linecap="round" />
</g>
		<g transform="matrix(1 0 0 1 -33.65 9.100000000000001)"  >
<path style="stroke: none; stroke-width: 1; stroke-dasharray: none; stroke-linecap: butt; stroke-dashoffset: 0; stroke-linejoin: miter; stroke-miterlimit: 4; fill: rgb(0,47,47); fill-rule: nonzero; opacity: 1;"  transform=" translate(-16.35, -59.1)" d="M 29.7 69.2 c 0 0 -18.7 -3.8 -26.7 -20.2 C 3 49 9.4 68.6 29.7 69.2 z" stroke-linecap="round" />
</g>
		<g transform="matrix(1 0 0 1 -35.650000000000006 0.9000000000000092)"  >
<path style="stroke: none; stroke-width: 1; stroke-dasharray: none; stroke-linecap: butt; stroke-dashoffset: 0; stroke-linejoin: miter; stroke-miterlimit: 4; fill: rgb(0,47,47); fill-rule: nonzero; opacity: 1;"  transform=" translate(-14.349999999999998, -50.900000000000006)" d="M 27.4 65.2 c 0 0 -20.5 -8.3 -26.1 -28.6 C 1.3 36.6 4.5 60.3 27.4 65.2 z" stroke-linecap="round" />
</g>
		<g transform="matrix(1 0 0 1 -35.80008709536943 -6.7501411238980324)"  >
<path style="stroke: none; stroke-width: 1; stroke-dasharray: none; stroke-linecap: butt; stroke-dashoffset: 0; stroke-linejoin: miter; stroke-miterlimit: 4; fill: rgb(0,47,47); fill-rule: nonzero; opacity: 1;"  transform=" translate(-14.19991290463057, -43.24985887610197)" d="M 26.2 61 c 0 0 -21.2 -12.4 -24 -35.5 C 2.2 25.4 1.9 51.9 26.2 61 z" stroke-linecap="round" />
</g>
		<g transform="matrix(1 0 0 1 -22.637558940458582 -0.46233130156880975)"  >
<path style="stroke: none; stroke-width: 1; stroke-dasharray: none; stroke-linecap: butt; stroke-dashoffset: 0; stroke-linejoin: miter; stroke-miterlimit: 4; fill: rgb(0,47,47); fill-rule: nonzero; opacity: 1;"  transform=" translate(-27.36244105954142, -49.53766869843119)" d="M 49 87.8 c 0 0 -14.3 -0.2 -13.5 -24.3 c 0 0 0.2 -4.8 -4 -7.1 c -1.7 -1 -3.3 -2.1 -4.6 -3.4 C 20.3 46.7 5.2 29.6 6.7 9 c 0 0 -7.5 23.4 19.1 49 c 0 0 0 0 0 0 c 2.7 3 4.4 6.8 4.7 10.9 c 0.4 5.3 2.6 14.7 11.9 20.5 C 44.7 90.7 47.6 90.1 49 87.8 L 49 87.8 z" stroke-linecap="round" />
</g>
		<g transform="matrix(1 0 0 1 13.844444444444449 39.40000000000001)"  >
<path style="stroke: none; stroke-width: 1; stroke-dasharray: none; stroke-linecap: butt; stroke-dashoffset: 0; stroke-linejoin: miter; stroke-miterlimit: 4; fill: rgb(0,47,47); fill-rule: nonzero; opacity: 1;"  transform=" translate(-63.84444444444445, -89.4)" d="M 64.2 87.8 c 0 0 -0.4 2 0 3.2 C 64.2 91 62.6 89.8 64.2 87.8 z" stroke-linecap="round" />
</g>
		<g transform="matrix(1 0 0 1 18.016170903190933 38.55805258290393)"  >
<path style="stroke: none; stroke-width: 1; stroke-dasharray: none; stroke-linecap: butt; stroke-dashoffset: 0; stroke-linejoin: miter; stroke-miterlimit: 4; fill: rgb(0,47,47); fill-rule: nonzero; opacity: 1;"  transform=" translate(-68.01617090319093, -88.55805258290394)" d="M 66.7 86.1 c 0 0 0 3.4 2.8 4.8 C 69.5 90.9 65.7 92.2 66.7 86.1 z" stroke-linecap="round" />
</g>
		<g transform="matrix(1 0 0 1 22.730994216167318 34.91600000000001)"  >
<path style="stroke: none; stroke-width: 1; stroke-dasharray: none; stroke-linecap: butt; stroke-dashoffset: 0; stroke-linejoin: miter; stroke-miterlimit: 4; fill: rgb(0,47,47); fill-rule: nonzero; opacity: 1;"  transform=" translate(-72.73099421616732, -84.91600000000001)" d="M 68.5 82 c 0 0 0.9 4.8 8.5 5.4 C 77 87.4 67.8 90.1 68.5 82 z" stroke-linecap="round" />
</g>
		<g transform="matrix(1 0 0 1 26.950000000000003 31.249811781685416)"  >
<path style="stroke: none; stroke-width: 1; stroke-dasharray: none; stroke-linecap: butt; stroke-dashoffset: 0; stroke-linejoin: miter; stroke-miterlimit: 4; fill: rgb(0,47,47); fill-rule: nonzero; opacity: 1;"  transform=" translate(-76.95, -81.24981178168542)" d="M 70.2 79.7 c 0 0 8.1 3.4 13.5 1.1 C 83.7 80.9 76.1 85.9 70.2 79.7 z" stroke-linecap="round" />
</g>
		<g transform="matrix(1 0 0 1 29.950000000000003 25.013075092295878)"  >
<path style="stroke: none; stroke-width: 1; stroke-dasharray: none; stroke-linecap: butt; stroke-dashoffset: 0; stroke-linejoin: miter; stroke-miterlimit: 4; fill: rgb(0,47,47); fill-rule: nonzero; opacity: 1;"  transform=" translate(-79.95, -75.01307509229588)" d="M 70.2 77 c 0 0 14.8 0 19.5 -5.1 C 89.7 71.9 83.7 81.3 70.2 77 z" stroke-linecap="round" />
</g>
		<g transform="matrix(1 0 0 1 32.30049970409807 16.674749770939556)"  >
<path style="stroke: none; stroke-width: 1; stroke-dasharray: none; stroke-linecap: butt; stroke-dashoffset: 0; stroke-linejoin: miter; stroke-miterlimit: 4; fill: rgb(0,47,47); fill-rule: nonzero; opacity: 1;"  transform=" translate(-82.30049970409807, -66.67474977093956)" d="M 70.2 73.3 c 0 0 15.8 -1 24.2 -13.5 C 94.5 60 87.1 75.7 70.2 73.3 z" stroke-linecap="round" />
</g>
		<g transform="matrix(1 0 0 1 34.449999999999996 9.100000000000001)"  >
<path style="stroke: none; stroke-width: 1; stroke-dasharray: none; stroke-linecap: butt; stroke-dashoffset: 0; stroke-linejoin: miter; stroke-miterlimit: 4; fill: rgb(0,47,47); fill-rule: nonzero; opacity: 1;"  transform=" translate(-84.44999999999999, -59.1)" d="M 71.1 69.2 c 0 0 18.7 -3.8 26.7 -20.2 C 97.7 49 91.3 68.6 71.1 69.2 z" stroke-linecap="round" />
</g>
		<g transform="matrix(1 0 0 1 36.34999999999999 0.9000000000000092)"  >
<path style="stroke: none; stroke-width: 1; stroke-dasharray: none; stroke-linecap: butt; stroke-dashoffset: 0; stroke-linejoin: miter; stroke-miterlimit: 4; fill: rgb(0,47,47); fill-rule: nonzero; opacity: 1;"  transform=" translate(-86.35, -50.900000000000006)" d="M 73.3 65.2 c 0 0 20.5 -8.3 26.1 -28.6 C 99.4 36.6 96.2 60.3 73.3 65.2 z" stroke-linecap="round" />
</g>
		<g transform="matrix(1 0 0 1 36.50008709536944 -6.7501411238980324)"  >
<path style="stroke: none; stroke-width: 1; stroke-dasharray: none; stroke-linecap: butt; stroke-dashoffset: 0; stroke-linejoin: miter; stroke-miterlimit: 4; fill: rgb(0,47,47); fill-rule: nonzero; opacity: 1;"  transform=" translate(-86.50008709536944, -43.24985887610197)" d="M 74.5 61 c 0 0 21.2 -12.4 24 -35.5 C 98.5 25.4 98.8 51.9 74.5 61 z" stroke-linecap="round" />
</g>
		<g transform="matrix(1 0 0 1 23.387558940458575 -0.46233130156880975)"  >
<path style="stroke: none; stroke-width: 1; stroke-dasharray: none; stroke-linecap: butt; stroke-dashoffset: 0; stroke-linejoin: miter; stroke-miterlimit: 4; fill: rgb(0,47,47); fill-rule: nonzero; opacity: 1;"  transform=" translate(-73.38755894045858, -49.53766869843119)" d="M 51.8 87.8 c 0 0 14.3 -0.2 13.5 -24.3 c 0 0 -0.2 -4.8 4 -7.1 c 1.7 -1 3.3 -2.1 4.6 -3.4 C 80.4 46.7 95.5 29.6 94 9 c 0 0 7.5 23.4 -19.1 49 c 0 0 0 0 0 0 c -2.7 3 -4.4 6.8 -4.7 10.9 c -0.4 5.3 -2.6 14.7 -11.9 20.5 C 56 90.7 53.1 90.1 51.8 87.8 L 51.8 87.8 z" stroke-linecap="round" />
</g>
		<g transform="matrix(1 0 0 1 -153.9 -211.1)"  >
<path style="stroke: none; stroke-width: 1; stroke-dasharray: none; stroke-linecap: butt; stroke-dashoffset: 0; stroke-linejoin: miter; stroke-miterlimit: 4; fill: rgb(0,47,47); fill-rule: nonzero; opacity: 1;"  transform=" translate(103.9, 161.1)" d="M -103.9 -161.1" stroke-linecap="round" />
</g>
</g>
</g>
</svg>